<?xml version="1.0" encoding="UTF-8" standalone="no"?>
<!-- Created with Inkscape (http://www.inkscape.org/) -->

<svg
   xmlns:dc="http://purl.org/dc/elements/1.1/"
   xmlns:cc="http://creativecommons.org/ns#"
   xmlns:rdf="http://www.w3.org/1999/02/22-rdf-syntax-ns#"
   xmlns:svg="http://www.w3.org/2000/svg"
   xmlns="http://www.w3.org/2000/svg"
   xmlns:sodipodi="http://sodipodi.sourceforge.net/DTD/sodipodi-0.dtd"
   xmlns:inkscape="http://www.inkscape.org/namespaces/inkscape"
   width="210mm"
   height="297mm"
   viewBox="0 0 210 297"
   version="1.1"
   id="svg3827"
   inkscape:version="0.92.3 (2405546, 2018-03-11)"
   sodipodi:docname="绘图.svg">
  <defs
     id="defs3821" />
  <sodipodi:namedview
     id="base"
     pagecolor="#ffffff"
     bordercolor="#666666"
     borderopacity="1.0"
     inkscape:pageopacity="0.0"
     inkscape:pageshadow="2"
     inkscape:zoom="0.35"
     inkscape:cx="-90"
     inkscape:cy="560"
     inkscape:document-units="mm"
     inkscape:current-layer="layer1"
     showgrid="false"
     inkscape:window-width="1920"
     inkscape:window-height="1017"
     inkscape:window-x="-8"
     inkscape:window-y="-8"
     inkscape:window-maximized="1" />
  <metadata
     id="metadata3824">
    <rdf:RDF>
      <cc:Work
         rdf:about="">
        <dc:format>image/svg+xml</dc:format>
        <dc:type
           rdf:resource="http://purl.org/dc/dcmitype/StillImage" />
        <dc:title></dc:title>
      </cc:Work>
    </rdf:RDF>
  </metadata>
  <g
     inkscape:label="Layer 1"
     inkscape:groupmode="layer"
     id="layer1">
    <g
       id="g3798"
       transform="matrix(0.25556787,-0.06847921,0.06847921,0.25556787,34.43289,106.76183)">
      <polygon
         id="polygon2"
         points="280.8,300.8 248.8,498.4 216.8,300.8 248.8,268 "
         style="fill:#efb143" />
      <polyline
         id="polyline4"
         points="248.8,268 280.8,300.8 248.8,498.4 "
         style="fill:#e28413" />
      <polygon
         id="polygon6"
         points="339.2,200 158.4,200 175.2,32 322.4,32 "
         style="fill:#af1909" />
      <polygon
         id="polygon8"
         points="312,304 185.6,304 174.4,232 323.2,232 "
         style="fill:#720500" />
      <polyline
         id="polyline10"
         points="176.8,232 323.2,232 312,304 "
         style="fill:#4c0000" />
      <polyline
         id="polyline12"
         points="176.8,32 322.4,32 340,201.6 "
         style="fill:#720500" />
      <path
         id="path14"
         d="m 355.2,18.4 c 0,12.8 -8.8,21.6 -20,21.6 H 162.4 c -11.2,0 -20,-9.6 -20,-22.4 v 0 C 142.4,4.8 151.2,0 162.4,0 h 172 c 12,0 20.8,6.4 20.8,18.4 z"
         style="fill:#af1909"
         inkscape:connector-curvature="0" />
      <path
         id="path16"
         d="m 355.2,18.4 v 0 c 0,12.8 -8.8,21.6 -20,21.6 H 162.4 c -11.2,0 -20,-9.6 -20,-22.4 v 0"
         style="fill:#8c0c02"
         inkscape:connector-curvature="0" />
      <path
         id="path18"
         d="m 383.2,216 c 0,12.8 -8.8,24 -20,24 h -228 c -11.2,0 -20,-11.2 -20,-24 v 0 c 0,-12.8 8.8,-24 20,-24 h 227.2 c 11.2,0 20.8,11.2 20.8,24 z"
         style="fill:#af1909"
         inkscape:connector-curvature="0" />
      <path
         id="path20"
         d="m 383.2,215.2 v 0 c 0,12.8 -8.8,24.8 -20,24.8 h -228 c -11.2,0 -20,-11.2 -20,-24 v 0"
         style="fill:#8c0c02"
         inkscape:connector-curvature="0" />
      <rect
         id="rect22"
         height="45.599998"
         width="45.599998"
         style="fill:#efb143"
         transform="matrix(-0.7071,0.7071,-0.7071,-0.7071,508.756,26.466)"
         y="95.800003"
         x="226.097" />
      <polygon
         id="polygon24"
         points="280.8,119.2 248.8,151.2 255.2,119.2 248.8,87.2 "
         style="fill:#e28413" />
    </g>
  </g>
</svg>
