<?xml version="1.0" encoding="iso-8859-1"?>
<!-- Generator: Adobe Illustrator 19.0.0, SVG Export Plug-In . SVG Version: 6.00 Build 0)  -->
<svg version="1.1" id="Capa_1" xmlns="http://www.w3.org/2000/svg" xmlns:xlink="http://www.w3.org/1999/xlink" x="0px" y="0px"
	 viewBox="0 0 512 512" style="enable-background:new 0 0 512 512;" xml:space="preserve">
<path style="fill:#DC5371;" d="M356.162,196.813L241.614,82.265l-14.745-64.498c-4.003-17.509-25.716-23.76-38.416-11.06
	L6.707,188.453c-12.7,12.7-6.449,34.413,11.06,38.416l64.498,14.745l114.548,114.548l14.745,64.498
	c4.003,17.509,25.716,23.76,38.416,11.06L431.72,249.974c12.7-12.7,6.449-34.413-11.06-38.416L356.162,196.813z"/>
<path style="opacity:0.1;enable-background:new    ;" d="M420.659,211.558l-64.498-14.745L241.614,82.265l-14.745-64.498
	c-4.003-17.509-25.716-23.76-38.416-11.06l-26.812,26.812c12.7-12.7,34.414-6.448,38.416,11.06l14.745,64.498L329.35,223.625
	l64.498,14.745c17.509,4.003,23.76,25.716,11.06,38.416l26.812-26.812C444.42,237.274,438.168,215.56,420.659,211.558z"/>
<rect x="106.543" y="138.214" transform="matrix(-0.7071 0.7071 -0.7071 -0.7071 529.2347 219.2108)" style="opacity:0.1;enable-background:new    ;" width="225.348" height="161.998"/>
<path style="fill:#5F666F;" d="M363.166,318.527l-44.639,44.639l156.495,143.051c8.717,7.968,22.16,7.666,30.51-0.684l0,0
	c8.351-8.35,8.652-21.794,0.684-30.51L363.166,318.527z"/>
<path style="opacity:0.15;enable-background:new    ;" d="M506.217,475.023L363.166,318.528l-44.639,44.638l33.016,30.179
	l28.267-28.267l112.872,123.48c5.655,6.186,7.123,14.747,4.526,22.185c3.042-1.062,5.901-2.786,8.326-5.21
	C513.883,497.182,514.185,483.739,506.217,475.023z"/>
<g>
</g>
<g>
</g>
<g>
</g>
<g>
</g>
<g>
</g>
<g>
</g>
<g>
</g>
<g>
</g>
<g>
</g>
<g>
</g>
<g>
</g>
<g>
</g>
<g>
</g>
<g>
</g>
<g>
</g>
</svg>
