<?xml version="1.0" encoding="iso-8859-1"?>
<!-- Generator: Adobe Illustrator 18.0.0, SVG Export Plug-In . SVG Version: 6.00 Build 0)  -->
<!DOCTYPE svg PUBLIC "-//W3C//DTD SVG 1.1//EN" "http://www.w3.org/Graphics/SVG/1.1/DTD/svg11.dtd">
<svg version="1.1" id="Capa_1" xmlns="http://www.w3.org/2000/svg" xmlns:xlink="http://www.w3.org/1999/xlink" x="0px" y="0px"
	 viewBox="0 0 235.67 235.67" style="enable-background:new 0 0 235.67 235.67;" xml:space="preserve">
<path d="M228.205,48.587c-2.01-12.47-12.844-22.027-25.872-22.027h-45.5c-13.028,0-23.863,9.556-25.872,22.027
	c-4.126,0.02-7.464,3.368-7.464,7.498v9.491c0,4.142,3.357,7.5,7.5,7.5c0.631,0,1.241-0.086,1.826-0.233l1.709,15.266h-33.394
	l1.709-15.266c0.585,0.147,1.195,0.233,1.826,0.233c4.143,0,7.5-3.358,7.5-7.5v-9.491c0-4.13-3.338-7.478-7.464-7.498
	c-2.01-12.47-12.844-22.027-25.872-22.027h-45.5c-13.028,0-23.863,9.556-25.872,22.027C3.339,48.606,0,51.955,0,56.085v9.491
	c0,4.142,3.357,7.5,7.5,7.5c0.631,0,1.241-0.087,1.827-0.234l10.65,95.15c0.425,3.795,3.634,6.666,7.453,6.666h57.313
	c3.819,0,7.028-2.87,7.453-6.666l7.263-64.883h10.876v77.167c0,0.375,0.037,0.741,0.09,1.102l-13.261,15.324
	c-2.711,3.132-2.369,7.869,0.763,10.579c3.135,2.71,7.87,2.369,10.579-0.764l9.131-10.551L126,206.322
	c1.482,1.835,3.651,2.788,5.84,2.788c1.654,0,3.32-0.545,4.708-1.666c3.222-2.603,3.725-7.325,1.122-10.547l-12.442-15.405
	c0.065-0.397,0.107-0.801,0.107-1.216v-77.167h10.876l7.263,64.883c0.425,3.795,3.634,6.666,7.453,6.666h57.313
	c3.819,0,7.028-2.87,7.453-6.666l10.65-95.15c0.586,0.147,1.196,0.234,1.827,0.234c4.143,0,7.5-3.358,7.5-7.5v-9.491
	C235.67,51.955,232.331,48.606,228.205,48.587z M33.337,41.56h45.5c4.7,0,8.722,2.914,10.386,7.025H22.951
	C24.615,44.474,28.637,41.56,33.337,41.56z M78.036,159.658H34.138L23.384,63.585h11.169v1.991c0,4.142,3.357,7.5,7.5,7.5
	s7.5-3.358,7.5-7.5v-1.991h13.065v1.991c0,4.142,3.357,7.5,7.5,7.5s7.5-3.358,7.5-7.5v-1.991h11.17L78.036,159.658z M156.833,41.56
	h45.5c4.7,0,8.722,2.914,10.386,7.025h-66.271C148.111,44.474,152.133,41.56,156.833,41.56z M201.532,159.658h-43.898L146.88,63.585
	h11.17v1.991c0,4.142,3.357,7.5,7.5,7.5s7.5-3.358,7.5-7.5v-1.991h13.065v1.991c0,4.142,3.357,7.5,7.5,7.5s7.5-3.358,7.5-7.5v-1.991
	h11.169L201.532,159.658z"/>
<g>
</g>
<g>
</g>
<g>
</g>
<g>
</g>
<g>
</g>
<g>
</g>
<g>
</g>
<g>
</g>
<g>
</g>
<g>
</g>
<g>
</g>
<g>
</g>
<g>
</g>
<g>
</g>
<g>
</g>
</svg>
