<?xml version="1.0" encoding="UTF-8" standalone="no"?>
<!-- Created with Inkscape (http://www.inkscape.org/) -->

<svg
   xmlns:dc="http://purl.org/dc/elements/1.1/"
   xmlns:cc="http://creativecommons.org/ns#"
   xmlns:rdf="http://www.w3.org/1999/02/22-rdf-syntax-ns#"
   xmlns:svg="http://www.w3.org/2000/svg"
   xmlns="http://www.w3.org/2000/svg"
   xmlns:sodipodi="http://sodipodi.sourceforge.net/DTD/sodipodi-0.dtd"
   xmlns:inkscape="http://www.inkscape.org/namespaces/inkscape"
   width="210mm"
   height="297mm"
   viewBox="-0.1 0 209.9 297"
   version="1.1"
   id="svg23"
   inkscape:version="0.92.3 (2405546, 2018-03-11)"
   sodipodi:docname="1.svg">
  <defs
     id="defs17" />
  <sodipodi:namedview
     id="base"
     pagecolor="#ffffff"
     bordercolor="#666666"
     borderopacity="1.0"
     inkscape:pageopacity="0.0"
     inkscape:pageshadow="2"
     inkscape:zoom="0.49497475"
     inkscape:cx="976.80574"
     inkscape:cy="596.91264"
     inkscape:document-units="mm"
     inkscape:current-layer="layer1"
     showgrid="false"
     inkscape:window-width="1920"
     inkscape:window-height="1017"
     inkscape:window-x="-8"
     inkscape:window-y="-8"
     inkscape:window-maximized="1" />
  <metadata
     id="metadata20">
    <rdf:RDF>
      <cc:Work
         rdf:about="">
        <dc:format>image/svg+xml</dc:format>
        <dc:type
           rdf:resource="http://purl.org/dc/dcmitype/StillImage" />
        <dc:title></dc:title>
      </cc:Work>
    </rdf:RDF>
  </metadata>
  <g
     inkscape:label="Layer 1"
     inkscape:groupmode="layer"
     id="layer1">
    <path
       id="path1881"
       d="m 88.483983,183.88521 c -0.0855,-0.2441 0.12479,-1.37908 0.46739,-2.52217 0.67738,-2.26006 0.78336,-3.09946 0.42146,-3.33809 -0.12867,-0.0848 -0.91436,0.0817 -1.746,0.37002 -1.73476,0.60148 -2.27593,0.48893 -2.24783,-0.46752 0.0206,-0.70219 0.65833,-1.62819 2.18366,-3.17088 l 0.89294,-0.9031 0.13401,-4.43126 c 0.11932,-3.94519 0.21508,-4.64569 0.87301,-6.38597 0.40645,-1.07508 1.11621,-2.52941 1.57724,-3.23185 0.46104,-0.70243 0.84202,-1.40565 0.84664,-1.56271 0.005,-0.15706 -0.88743,-1.188 -1.98231,-2.29097 -3.55876,-3.58505 -9.3154,-7.46437 -15.88122,-10.70215 -4.26021,-2.10082 -7.21751,-3.77265 -7.48168,-4.22955 -0.26672,-0.46133 0.33236,-0.26627 2.56853,0.83631 1.20541,0.59436 4.21502,1.81447 6.68802,2.71137 6.61972,2.40082 10.0585,4.43779 15.12915,8.96177 1.42477,1.27116 2.72915,2.40263 2.89862,2.51438 0.16947,0.11174 1.12928,-0.18089 2.13291,-0.65029 2.300834,-1.0761 3.310984,-1.04092 10.575037,0.36822 3.7385,0.72523 6.08311,1.03717 7.72572,1.02789 l 2.35832,-0.0133 1.27989,-2.17104 c 1.1771,-1.99667 1.2592,-2.25504 1.02223,-3.21693 -0.61203,-2.48431 -0.007,-5.29327 1.27884,-5.9334 1.45828,-0.7262 2.45947,0.14292 4.21332,3.6575 0.64113,1.28476 1.32126,2.28476 1.55869,2.29173 0.49872,0.0146 0.49387,-0.28794 -0.0406,-2.53574 -0.55301,-2.32583 -0.23055,-4.24696 0.89023,-5.30377 0.69277,-0.65323 0.99073,-0.754 1.73664,-0.58734 1.73536,0.38774 2.45602,2.05169 2.71003,6.25717 0.0729,1.20788 0.24658,2.27127 0.38585,2.36309 0.13926,0.0918 1.73346,0.51284 3.54268,0.9356 8.99903,2.10276 12.62994,4.52674 12.51743,8.35659 -0.0254,0.86453 -0.26325,1.21747 -1.6265,2.41344 -1.60014,1.40381 -5.45436,3.5769 -10.39914,5.86325 -3.73966,1.72913 -3.88395,2.51012 -1.09324,5.91704 1.64772,2.01155 2.11755,2.99517 1.7192,3.59929 -0.26207,0.39745 -1.28292,0.22919 -4.40968,-0.72682 -3.17468,-0.97067 -3.50368,-0.72349 -1.8718,1.40623 2.11346,2.7582 2.50932,4.28938 1.20516,4.66152 -0.63089,0.18003 -2.95604,-0.67368 -7.27438,-2.6709 l -3.20055,-1.48024 -1.70533,0.28393 c -0.93793,0.15616 -4.76181,0.25665 -8.49751,0.22331 -6.49325,-0.058 -6.95609,-0.0981 -10.51642,-0.91172 -3.580483,-0.81826 -3.749413,-0.8326 -4.376117,-0.37148 -0.35852,0.26381 -2.00462,1.55046 -3.65798,2.85926 -1.65337,1.30879 -3.08778,2.37838 -3.18759,2.37687 -0.0998,-10e-4 -0.25145,-0.20246 -0.33699,-0.44656 z m 48.972767,-18.08363 c 0.72793,-0.73035 0.56356,-1.65521 -0.22326,-1.25623 -0.90491,0.45885 -2.46565,2.16472 -2.2778,2.48962 0.21535,0.37248 1.5628,-0.292 2.50106,-1.23339 z m -1.95579,-1.87123 c 0.77543,-0.30693 1.415,-0.73283 1.42127,-0.94646 0.0155,-0.52876 -0.34022,-0.50023 -1.82824,0.14658 -2.61673,1.13743 -2.25284,1.85266 0.40697,0.79988 z m -2.70833,-4.53986 c 0.004,-0.14283 -0.36921,-0.35414 -0.82979,-0.46957 -0.46059,-0.11544 -1.07037,-0.52461 -1.35506,-0.90927 -0.93857,-1.26812 -1.17335,-0.81846 -0.33784,0.64703 0.43783,0.76794 0.70769,0.9384 1.52357,0.96237 0.54532,0.016 0.99493,-0.0877 0.99912,-0.23056 z m 1.15886,-2.86395 c 0.14707,-1.30346 -0.57979,-1.87898 -1.55949,-1.2348 -1.1791,0.77528 -0.65181,2.45428 0.73285,2.33356 0.59498,-0.0519 0.72856,-0.22943 0.82664,-1.09876 z m 11.71867,-2.77926 c 0.011,-0.65933 1.70746,-3.96567 2.2539,-4.39272 0.84425,-0.65978 0.75198,0.0352 -0.24265,1.82748 -1.29177,2.32778 -2.02282,3.2602 -2.01125,2.56524 z m -1.93733,-1.41291 c 0.0357,-1.02089 0.36262,-1.95164 0.68224,-1.94225 0.17074,0.005 0.19232,0.42019 0.0551,1.06041 -0.27355,1.27654 -0.77199,1.87264 -0.73736,0.88184 z M 64.756643,139.86415 c 0.0106,-0.36148 0.21036,-0.35561 0.42315,0.0124 0.0913,0.15797 0.0316,0.28328 -0.13269,0.27845 -0.16431,-0.005 -0.29502,-0.13572 -0.29046,-0.29088 z"
       style="fill:#030000;fill-opacity:1;stroke:none;stroke-width:0.28222221;stroke-opacity:1"
       inkscape:connector-curvature="0" />
  </g>
</svg>
