<?xml version="1.0" encoding="UTF-8" standalone="no"?>
<!-- Created with Inkscape (http://www.inkscape.org/) -->

<svg
   xmlns:dc="http://purl.org/dc/elements/1.1/"
   xmlns:cc="http://creativecommons.org/ns#"
   xmlns:rdf="http://www.w3.org/1999/02/22-rdf-syntax-ns#"
   xmlns:svg="http://www.w3.org/2000/svg"
   xmlns="http://www.w3.org/2000/svg"
   xmlns:sodipodi="http://sodipodi.sourceforge.net/DTD/sodipodi-0.dtd"
   xmlns:inkscape="http://www.inkscape.org/namespaces/inkscape"
   width="210mm"
   height="297mm"
   viewBox="0 0 210 297"
   version="1.1"
   id="svg23"
   inkscape:version="0.92.3 (2405546, 2018-03-11)"
   sodipodi:docname="2.svg">
  <defs
     id="defs17" />
  <sodipodi:namedview
     id="base"
     pagecolor="#ffffff"
     bordercolor="#666666"
     borderopacity="1.0"
     inkscape:pageopacity="0.0"
     inkscape:pageshadow="2"
     inkscape:zoom="0.35"
     inkscape:cx="400"
     inkscape:cy="560"
     inkscape:document-units="mm"
     inkscape:current-layer="layer1"
     showgrid="false"
     inkscape:window-width="1920"
     inkscape:window-height="1017"
     inkscape:window-x="-8"
     inkscape:window-y="-8"
     inkscape:window-maximized="1" />
  <metadata
     id="metadata20">
    <rdf:RDF>
      <cc:Work
         rdf:about="">
        <dc:format>image/svg+xml</dc:format>
        <dc:type
           rdf:resource="http://purl.org/dc/dcmitype/StillImage" />
        <dc:title></dc:title>
      </cc:Work>
    </rdf:RDF>
  </metadata>
  <g
     inkscape:label="Layer 1"
     inkscape:groupmode="layer"
     id="layer1">
    <path
       id="path1881"
       d="m 94.482527,174.67589 c -0.0802,-0.22884 0.117,-1.29288 0.43819,-2.36454 0.63504,-2.1188 0.73439,-2.90574 0.39511,-3.12945 -0.12062,-0.0795 -0.85721,0.0766 -1.63687,0.34689 -1.62634,0.56389 -2.13368,0.45837 -2.10734,-0.4383 0.0193,-0.6583 0.61718,-1.52643 2.04718,-2.9727 l 0.83713,-0.84665 0.12564,-4.15432 c 0.11185,-3.69861 0.20163,-4.35532 0.81844,-5.98684 0.38104,-1.00789 1.04644,-2.37133 1.47867,-3.02986 0.43221,-0.65853 0.78939,-1.3178 0.79371,-1.46504 0.004,-0.14725 -0.83196,-1.11375 -1.85841,-2.14778 -3.33634,-3.36099 -8.73319,-6.99786 -14.88864,-10.03327 -3.99395,-1.96952 -6.76642,-3.53686 -7.01407,-3.96521 -0.25005,-0.43249 0.31158,-0.24962 2.40799,0.78405 1.13007,0.5572 3.95158,1.70106 6.27002,2.5419 6.20599,2.25078 9.42984,4.16043 14.18358,8.40166 1.33572,1.19172 2.55857,2.25247 2.71745,2.35723 0.15888,0.10476 1.058703,-0.16957 1.999613,-0.60964 2.15703,-1.00884 3.10404,-0.97587 9.91409,0.3452 3.50484,0.6799 5.70291,0.97235 7.24286,0.96365 l 2.21092,-0.0125 1.1999,-2.03535 c 1.10354,-1.87187 1.18051,-2.1141 0.95835,-3.01587 -0.57379,-2.32904 -0.006,-4.96244 1.19891,-5.56256 1.36713,-0.68081 2.30575,0.13399 3.94999,3.42891 0.60105,1.20446 1.23868,2.14196 1.46127,2.1485 0.46754,0.0137 0.463,-0.26995 -0.038,-2.37726 -0.51845,-2.18047 -0.21615,-3.98153 0.83458,-4.97228 0.64948,-0.61241 0.92881,-0.70688 1.6281,-0.55064 1.6269,0.36351 2.30253,1.92346 2.54066,5.8661 0.0684,1.13238 0.23117,2.12931 0.36173,2.2154 0.13055,0.0861 1.62512,0.48079 3.32126,0.87711 8.4366,1.97135 11.84057,4.24383 11.7351,7.83431 -0.0238,0.8105 -0.2468,1.14138 -1.52484,2.2626 -1.50014,1.31608 -5.11347,3.35334 -9.7492,5.4968 -3.50593,1.62106 -3.64121,2.35324 -1.02492,5.54722 1.54474,1.88583 1.98521,2.80798 1.61176,3.37434 -0.24569,0.37261 -1.20274,0.21486 -4.13408,-0.6814 -2.97626,-0.90999 -3.2847,-0.67827 -1.75481,1.31835 1.98137,2.58581 2.35248,4.02129 1.12984,4.37017 -0.59147,0.16878 -2.77129,-0.63157 -6.81974,-2.50397 l -3.00052,-1.38772 -1.59874,0.26618 c -0.87931,0.1464 -4.46419,0.24061 -7.96641,0.20935 -6.08742,-0.0543 -6.52134,-0.0919 -9.85915,-0.85473 -3.3567,-0.76712 -3.51507,-0.78057 -4.1026,-0.34826 -0.33612,0.24731 -1.879333,1.45356 -3.429363,2.68055 -1.55003,1.22699 -2.89479,2.22973 -2.98836,2.22832 -0.0936,-0.001 -0.23574,-0.18981 -0.31593,-0.41865 z m 45.911973,-16.9534 c 0.68243,-0.6847 0.52833,-1.55176 -0.20931,-1.17772 -0.84835,0.43017 -2.31154,2.02942 -2.13543,2.33402 0.20189,0.3492 1.46512,-0.27375 2.34474,-1.1563 z m -1.83356,-1.75429 c 0.72697,-0.28774 1.32657,-0.68702 1.33245,-0.8873 0.0145,-0.49571 -0.31896,-0.46897 -1.71398,0.13742 -2.45318,1.06634 -2.11203,1.73687 0.38153,0.74988 z m -2.53905,-4.25611 c 0.004,-0.1339 -0.34614,-0.332 -0.77793,-0.44023 -0.4318,-0.10822 -1.00347,-0.49182 -1.27037,-0.85244 -0.87991,-1.18886 -1.10002,-0.7673 -0.31672,0.60659 0.41046,0.71995 0.66345,0.87976 1.42834,0.90223 0.51124,0.015 0.93274,-0.0822 0.93668,-0.21615 z m 1.08643,-2.68496 c 0.13788,-1.22199 -0.54356,-1.76154 -1.46202,-1.15762 -1.10541,0.72682 -0.61108,2.30089 0.68704,2.18771 0.5578,-0.0486 0.68303,-0.21509 0.77498,-1.03009 z M 72.238147,133.40615 c 0.01,-0.33889 0.19722,-0.33339 0.3967,0.0117 0.0856,0.14809 0.0297,0.26556 -0.12439,0.26104 -0.15404,-0.005 -0.27658,-0.12724 -0.27231,-0.2727 z"
       style="fill:#030000;fill-opacity:1;stroke:none;stroke-width:0.26458332;stroke-opacity:1"
       inkscape:connector-curvature="0"
       sodipodi:nodetypes="ccccsscssccsscssssssscsssssccscsscssscscscccscscsccsccsssssccsssccsccssss" />
  </g>
</svg>
