<?xml version="1.0" encoding="iso-8859-1"?>
<!-- Generator: Adobe Illustrator 18.1.1, SVG Export Plug-In . SVG Version: 6.00 Build 0)  -->
<svg version="1.1" id="Capa_1" xmlns="http://www.w3.org/2000/svg" xmlns:xlink="http://www.w3.org/1999/xlink" x="0px" y="0px"
	 viewBox="0 0 612 612" style="enable-background:new 0 0 612 612;" xml:space="preserve">
<g>
	<path d="M506.903,436.306c-8.334,0-15.086-6.753-15.086-15.086c0-8.334,6.753-15.086,15.086-15.086h26.328V171.796h-26.328
		c-8.334,0-15.086-6.753-15.086-15.086s6.753-15.086,15.086-15.086h26.328V70.112c0-4.103-3.34-7.444-7.447-7.444H86.209
		c-4.103,0-7.447,3.337-7.447,7.444v437.706c0,4.103,3.34,7.447,7.447,7.447h439.576c4.103,0,7.447-3.34,7.447-7.447v-71.512
		L506.903,436.306L506.903,436.306z M196.746,361.943c-40.241,0-72.978-32.737-72.978-72.978s32.737-72.978,72.978-72.978
		s72.978,32.737,72.978,72.978S236.987,361.943,196.746,361.943z M476.731,339.826H330.898c-8.334,0-15.086-6.753-15.086-15.086
		v-71.548c0-8.334,6.753-15.086,15.086-15.086h145.833c8.334,0,15.086,6.753,15.086,15.086v71.548
		C491.817,333.074,485.064,339.826,476.731,339.826z M239.551,288.965c0,23.601-19.202,42.806-42.806,42.806
		s-42.806-19.202-42.806-42.806s19.202-42.806,42.806-42.806S239.551,265.364,239.551,288.965z M549.836,0H62.158
		C36.424,0,15.494,20.934,15.494,46.665v487.68c0,25.378,20.366,46.088,45.612,46.653v15.916c0,8.334,6.753,15.086,15.086,15.086
		h49.703c8.334,0,15.086-6.753,15.086-15.086V581.01h324.773v15.904c0,8.334,6.753,15.086,15.086,15.086h49.703
		c8.334,0,15.086-6.753,15.086-15.086V581.01h4.212c25.731,0,46.665-20.934,46.665-46.665V46.665C596.5,20.934,575.57,0,549.836,0z
		 M563.404,507.821c0,20.744-16.875,37.619-37.619,37.619H86.209c-20.744,0-37.619-16.875-37.619-37.619V70.112
		c0-20.741,16.875-37.616,37.619-37.616h439.576c20.744,0,37.619,16.875,37.619,37.616V507.821z"/>
</g>
<g>
</g>
<g>
</g>
<g>
</g>
<g>
</g>
<g>
</g>
<g>
</g>
<g>
</g>
<g>
</g>
<g>
</g>
<g>
</g>
<g>
</g>
<g>
</g>
<g>
</g>
<g>
</g>
<g>
</g>
</svg>
